<?xml version="1.0" encoding="UTF-8"?>
<!DOCTYPE svg PUBLIC "-//W3C//DTD SVG 1.1//EN" "http://www.w3.org/Graphics/SVG/1.1/DTD/svg11.dtd">
<!-- Creator: CorelDRAW X8 -->
<svg xmlns="http://www.w3.org/2000/svg" xml:space="preserve" width="100%" height="100%" version="1.1" style="shape-rendering:geometricPrecision; text-rendering:geometricPrecision; image-rendering:optimizeQuality; fill-rule:evenodd; clip-rule:evenodd"
viewBox="0 0 16231 3852"
 xmlns:xlink="http://www.w3.org/1999/xlink">
 <defs>
  <style type="text/css">
   <![CDATA[
    .fil7 {fill:#008BC0}
    .fil8 {fill:#333142}
    .fil3 {fill:#B3DFEB}
    .fil6 {fill:#F5AA0A}
    .fil5 {fill:#FAB978}
    .fil2 {fill:white}
    .fil1 {fill:#008BC0;fill-rule:nonzero}
    .fil0 {fill:#333142;fill-rule:nonzero}
    .fil4 {fill:white;fill-rule:nonzero}
   ]]>
  </style>
 </defs>
 <g id="Capa_x0020_1">
  <metadata id="CorelCorpID_0Corel-Layer"/>
  <g id="_1457449430832">
   <g>
    <path class="fil0" d="M4344 2946c-162,35 -308,53 -439,53 -130,0 -234,-16 -312,-49 -78,-32 -140,-83 -184,-154 -45,-70 -75,-153 -92,-248 -17,-95 -25,-214 -25,-358 0,-302 42,-512 127,-631 85,-119 242,-178 470,-178 132,0 284,20 458,62l-10 253c-151,-23 -277,-35 -378,-35 -100,0 -172,14 -215,40 -42,27 -74,78 -95,153 -21,75 -31,203 -31,384 0,181 21,306 63,376 42,69 127,104 253,104 126,0 261,-10 403,-32l7 260zm244 25l0 -1609 308 0 0 1609 -308 0zm669 -1019c81,-105 217,-158 407,-158 190,0 325,53 406,158 82,105 122,252 122,442 0,403 -176,605 -528,605 -353,0 -529,-202 -529,-605 0,-190 41,-337 122,-442zm238 702c31,55 87,83 169,83 81,0 137,-28 168,-83 32,-55 48,-142 48,-260 0,-118 -16,-204 -48,-257 -31,-54 -87,-81 -168,-81 -82,0 -138,27 -169,81 -32,53 -48,139 -48,257 0,118 16,205 48,260zm1600 -832l308 0 0 1149 -305 0 0 -64c-111,61 -206,92 -288,92 -159,0 -266,-44 -321,-132 -56,-89 -83,-236 -83,-443l0 -602 308 0 0 607c0,113 9,190 27,232 19,41 63,62 134,62 67,0 131,-11 190,-32l30 -9 0 -860zm1570 -460l0 1609 -306 0 0 -48c-107,50 -200,76 -278,76 -167,0 -283,-49 -349,-145 -66,-97 -99,-249 -99,-459 0,-209 40,-361 119,-457 78,-96 198,-144 357,-144 49,0 117,8 204,23l44 10 0 -465 308 0zm-340 1333l32 -7 0 -604c-84,-15 -159,-23 -225,-23 -124,0 -186,110 -186,331 0,119 14,205 41,255 28,51 73,76 137,76 63,0 130,-9 201,-28z"/>
    <path class="fil1" d="M9968 2946c-162,35 -309,53 -439,53 -130,0 -234,-16 -312,-49 -78,-32 -140,-83 -184,-154 -45,-70 -75,-153 -92,-248 -17,-95 -25,-214 -25,-358 0,-302 42,-512 127,-631 85,-119 242,-178 470,-178 132,0 284,20 458,62l-10 253c-151,-23 -277,-35 -378,-35 -100,0 -172,14 -215,40 -43,27 -74,78 -95,153 -21,75 -31,203 -31,384 0,181 21,306 63,376 42,69 127,104 253,104 126,0 261,-10 403,-32l7 260zm1110 -765l0 478c3,36 10,62 19,77 9,14 28,24 57,31l-9 232c-78,0 -141,-6 -187,-16 -47,-11 -94,-33 -142,-65 -110,54 -223,81 -338,81 -237,0 -356,-126 -356,-377 0,-123 33,-210 99,-261 66,-51 167,-82 303,-91l246 -18 0 -71c0,-48 -10,-81 -32,-98 -21,-18 -56,-27 -103,-27l-432 19 -10 -214c164,-44 320,-67 468,-67 148,0 255,31 320,92 65,62 97,160 97,295zm-517 303c-86,8 -129,54 -129,138 0,84 38,126 113,126 58,0 122,-9 191,-27l34 -10 0 -245 -209 18zm811 970l0 -1632 306 0 0 62c100,-60 187,-90 262,-90 155,0 269,47 343,139 73,93 110,251 110,473 0,222 -41,376 -122,463 -81,86 -214,130 -400,130 -50,0 -105,-5 -163,-14l-28 -5 0 474 -308 0zm508 -1384c-56,0 -114,12 -172,35l-28 11 0 602c69,10 125,14 168,14 89,0 150,-26 183,-78 33,-52 49,-141 49,-267 0,-211 -66,-317 -200,-317zm1379 14l-282 0 0 471c0,46 1,79 3,98 2,19 11,35 25,49 15,14 38,21 68,21l175 -5 14 246c-103,23 -181,35 -235,35 -138,0 -232,-31 -282,-93 -51,-62 -76,-177 -76,-344l0 -478 -136 0 0 -262 136 0 0 -319 308 0 0 319 282 0 0 262zm1081 97l0 478c3,36 9,62 18,77 9,14 28,24 57,31l-9 232c-78,0 -140,-6 -187,-16 -47,-11 -94,-33 -141,-65 -111,54 -223,81 -338,81 -238,0 -356,-126 -356,-377 0,-123 32,-210 98,-261 66,-51 167,-82 304,-91l246 -18 0 -71c0,-48 -11,-81 -33,-98 -21,-18 -55,-27 -103,-27l-432 19 -9 -214c164,-44 320,-67 467,-67 148,0 255,31 320,92 65,62 98,160 98,295zm-518 303c-85,8 -128,54 -128,138 0,84 37,126 112,126 59,0 122,-9 191,-27l35 -10 0 -245 -210 18zm812 487l0 -1149 308 0 0 1149 -308 0zm0 -1296l0 -313 308 0 0 313 -308 0zm901 1296l-308 0 0 -1149 305 0 0 64c105,-61 200,-92 288,-92 153,0 259,46 317,136 58,90 87,230 87,418l0 623 -308 0 0 -613c0,-99 -11,-171 -34,-218 -23,-46 -69,-70 -138,-70 -63,0 -123,11 -182,32l-27 10 0 859z"/>
   </g>
   <path class="fil2" d="M1336 1157c-57,0 -103,-45 -103,-102 0,-55 43,-100 97,-102 2,-63 54,-114 117,-114 64,0 115,50 117,113 2,0 5,0 7,0 28,0 51,23 51,51 0,1 0,1 0,2 4,-1 8,-1 13,-1 42,0 77,34 77,77 0,42 -35,76 -77,76l0 0 -299 0z"/>
   <g>
    <path class="fil3" d="M2471 1905c26,29 37,67 42,115 5,49 6,98 1,147 -3,36 -10,71 -20,102 -10,30 -24,57 -41,80 -21,28 -51,51 -85,68 -37,19 -80,32 -126,40 -53,6 -94,12 -149,10 -41,-2 -81,-6 -117,-14 -36,-8 -69,-18 -97,-31 -46,-22 -78,-49 -104,-84 -25,-34 -44,-75 -66,-127 -20,-46 -39,-97 -44,-144 -6,-53 5,-101 49,-135 7,-5 15,-10 24,-15 9,-5 19,-9 30,-14l63 -24 -32 59c-6,10 -11,21 -15,32 -4,10 -6,20 -8,31 -1,4 0,8 2,11 2,4 5,6 9,8 4,1 8,1 11,0 4,-1 7,-4 9,-8 17,-28 40,-55 65,-79 27,-27 59,-51 91,-71l4 -3 6 -1c67,-8 138,-13 203,-15 67,-2 127,0 170,6 60,8 99,27 125,56zm-310 121c0,0 -1,0 -1,0 -27,-4 -55,3 -82,16 -35,16 -68,42 -91,67 -24,25 -49,59 -64,95 -11,28 -17,56 -12,82l0 2 1 1c1,0 1,0 2,0 0,0 1,0 1,0 21,-20 46,-36 72,-49 30,-14 63,-24 93,-30 30,-6 64,-10 97,-8 29,1 58,6 85,17 1,0 1,0 2,0 0,-1 1,-1 1,-2 0,0 0,-1 0,-1 0,-1 0,-1 -1,-2 -19,-18 -46,-28 -76,-33 -38,-7 -80,-4 -114,3 -11,2 -25,6 -38,10 -13,4 -25,9 -37,15l-85 40 54 -76c5,-8 11,-15 18,-23 6,-8 13,-15 20,-22 21,-23 47,-45 75,-62 25,-16 52,-29 79,-35 1,-1 1,-1 1,-1 1,-1 1,-1 1,-2 0,-1 0,-1 -1,-2zm-1077 -84c21,22 40,45 55,70 2,4 5,7 8,8 4,1 8,1 12,0 4,-2 7,-4 9,-8 2,-3 3,-7 2,-11 -1,-10 -4,-20 -7,-29 -4,-11 -8,-21 -14,-30l-27 -52 56 17c15,4 28,9 41,14 12,5 23,11 32,17 49,31 69,78 74,129 5,48 -3,99 -13,145 -12,53 -22,95 -41,130 -19,37 -45,65 -88,89 -72,41 -198,61 -318,50 -105,-10 -206,-42 -267,-104 -48,-48 -88,-160 -94,-166 -5,-15 -9,-29 -13,-44 -4,-16 -7,-31 -10,-48l-1 -3c-12,-67 -17,-119 -2,-159 17,-44 54,-71 128,-84 42,-7 106,-10 177,-10 68,0 143,3 213,11l7 1 5 3c27,19 53,41 76,64zm-227 109c-23,27 -39,66 -45,110l-2 18 -17 3c-14,3 -28,7 -41,13 -11,5 -21,11 -29,19 -1,1 -1,1 -1,2 0,0 0,1 0,1 1,1 1,1 1,2 1,0 2,0 2,0 27,-11 56,-16 85,-17 34,-2 67,2 97,8 31,6 63,16 93,30 26,13 51,29 72,49 0,0 1,0 1,0 1,0 2,0 2,0 1,-1 1,-1 1,-2 0,0 0,-1 0,-1 -3,-6 -6,-12 -10,-17 -3,-5 -8,-10 -13,-16l-11 -11 6 -15c2,-5 4,-11 5,-17 1,-5 2,-11 2,-18 0,-51 -15,-97 -38,-131 -22,-30 -52,-50 -84,-50 -29,0 -55,15 -76,40z"/>
    <path class="fil4" d="M1902 2987c0,0 1,0 1,1 10,3 20,4 30,5 12,0 24,-1 36,-3l27 -5 1 28c2,34 -1,67 -9,91 -10,26 -27,43 -55,44 -96,5 -186,-14 -264,-41 -77,-27 -143,-63 -192,-93l-55 -35 64 -10c5,-1 10,-2 17,-4 3,-1 7,-2 11,-3 40,-5 94,-13 141,-22 36,-7 69,-15 90,-21 36,-12 69,-26 101,-40 32,-14 63,-30 92,-46l28 -15 8 31c2,9 5,24 9,46 3,14 5,30 8,46l2 20 -18 7c-12,4 -24,7 -36,10 -12,2 -23,4 -35,5 -1,0 -1,0 -2,0 0,1 0,1 0,2l0 0c0,1 0,1 0,2zm-267 -1805l-299 0c-35,0 -67,-14 -90,-37 -23,-23 -37,-55 -37,-90 0,-34 13,-65 34,-87 18,-18 40,-31 65,-37 5,-30 20,-56 41,-76 25,-25 60,-40 98,-40 38,0 73,15 99,40 20,19 35,45 40,74 15,3 28,10 38,21 9,8 15,18 19,30 24,2 47,12 63,29 19,18 30,44 30,72 0,28 -11,53 -30,71 -18,19 -43,30 -71,30zm-706 964c-17,10 -37,13 -56,6 -19,-7 -33,-22 -40,-40 -7,-17 -8,-38 -1,-57l1 -1c7,-20 20,-35 36,-44 16,-9 34,-12 52,-7l0 0 4 1c19,7 33,22 40,41 7,17 7,37 0,57 -7,19 -20,35 -36,44z"/>
    <path class="fil5" d="M2156 1721c-61,6 -123,27 -172,52l-30 16 -30 3c-114,15 -194,36 -261,54 -45,12 -85,22 -126,29 -10,1 -21,2 -32,3 -11,1 -21,2 -31,3l-2 0c-11,0 -21,-1 -31,-2 -10,0 -21,-1 -32,-3 -42,-5 -84,-14 -132,-25 -67,-15 -145,-32 -252,-44l-5 0 -5 -4c-9,-5 -17,-10 -26,-16 -9,-5 -18,-10 -26,-14 -49,-25 -112,-46 -173,-52 -48,-5 -95,-1 -134,19 -4,2 -7,5 -8,9 -2,3 -2,7 -1,11 1,2 2,4 3,5 1,2 2,3 4,4l48 36 -59 8c-30,5 -57,9 -83,13l-76 13 214 -270 18 11c214,128 488,191 761,190 273,-1 545,-67 756,-197l19 -12 192 244 -153 -17 8 -28c1,-4 0,-8 -1,-12 -2,-3 -4,-6 -8,-8 -39,-20 -86,-24 -134,-19zm-1907 473c0,21 5,43 15,64l2 3c0,-4 -1,-9 -4,-14 -8,-19 -10,-37 -8,-52 3,-12 7,-22 14,-31 7,-8 15,-15 25,-20 15,-7 31,-9 50,-6l17 4 2 18c5,34 8,73 11,114 3,40 6,83 8,128l2 36 -34 -12c-33,-11 -67,-31 -97,-56 -28,-24 -52,-53 -66,-83 -38,-80 -41,-140 -26,-182 8,-25 23,-44 41,-58 18,-13 39,-21 59,-23 34,-5 69,5 91,26l8 8 -1 59 -24 0c-19,0 -35,4 -48,10 -13,6 -22,15 -28,26 -7,12 -9,26 -9,41zm1141 360c0,1 0,1 0,2 22,22 53,40 86,52 35,12 72,17 102,14 30,-4 66,-19 99,-41 30,-19 56,-45 71,-71 0,-1 0,-1 0,-2 0,-1 0,-1 -1,-2 0,0 -1,0 -2,0 0,0 -1,0 -1,0 -22,19 -48,33 -75,44 -31,12 -64,19 -95,23 -30,4 -64,5 -97,1 -29,-3 -58,-10 -84,-22 0,0 -1,-1 -2,0 0,0 -1,0 -1,1 0,0 0,1 0,1zm418 -139c35,33 80,57 149,76l14 3 16 4 56 10 -47 33c-113,80 -233,160 -356,198 -125,40 -252,36 -374,-54l-1 -1c-15,-12 -32,-19 -51,-20 -18,-1 -36,4 -52,15 -37,26 -73,46 -108,60 -89,37 -168,37 -236,10 -68,-26 -125,-78 -172,-145 -28,-41 -52,-87 -72,-137l-36 -86 73 58c17,13 34,25 53,35 18,10 37,18 58,25 50,18 125,26 200,27 77,0 154,-7 205,-23 64,-21 103,-45 130,-79 29,-34 47,-79 68,-137 3,-7 6,-15 9,-25 25,-74 73,-214 160,-219l2 0c85,2 160,138 200,210 6,10 10,19 14,25 34,58 62,103 98,137zm965 -324c20,43 20,108 -22,196 -14,30 -37,58 -65,82 -29,25 -63,45 -96,57l-33 12 0 -35c1,-45 2,-87 4,-127 1,-41 4,-80 8,-115l1 -16 16 -5c22,-6 42,-4 58,4 9,4 17,10 24,18 6,7 11,16 14,26 4,17 3,38 -7,59 -2,5 -3,10 -3,14l1 -3c11,-22 16,-46 16,-67 -1,-15 -4,-28 -10,-39 -6,-10 -15,-19 -28,-25 -13,-7 -31,-10 -53,-10l-25 1 -1 -51 6 -7c20,-27 58,-40 96,-37 19,2 39,8 56,19l0 1c17,11 32,27 43,48z"/>
    <path class="fil6" d="M2464 1800l-197 -248 21 -15c20,-15 39,-31 57,-47 17,-16 33,-33 48,-51l4 -5 13 -4c19,-9 36,-17 52,-25 17,-8 33,-17 51,-26l36 -19 0 455 -79 -7 -6 -8zm-1798 -220l-207 261 -10 1 -18 1c-5,0 -11,0 -17,0l-24 0 0 -483 36 19c17,10 34,18 50,27 16,7 34,15 53,24l13 6 4 4c16,19 33,37 52,54 20,18 41,35 63,51l21 14 -16 21zm968 1530c81,31 173,47 290,47 82,1 116,-48 126,-110 11,-70 -5,-158 -20,-222l-17 -69 56 44c5,4 12,7 19,6 7,0 13,-2 19,-7 6,-5 10,-13 10,-20 1,-8 -1,-16 -7,-22 -8,-10 -17,-20 -27,-29 -9,-9 -19,-18 -30,-26 -11,-8 -21,-13 -32,-18 -13,-5 -26,-9 -43,-14 -8,-2 -16,0 -23,4 -7,3 -12,10 -14,18 -2,5 -1,11 0,16 1,5 4,10 8,14l25 23 -29 16c-63,35 -125,62 -186,82 -60,21 -121,36 -180,45 -27,5 -55,8 -82,11 -27,2 -54,4 -81,5l-5 0c-35,1 -70,0 -104,-1 -36,-1 -70,-3 -104,-6 -8,0 -16,3 -22,8 -6,5 -10,12 -10,20 -1,4 21,0 48,7 65,18 159,31 178,33l8 0 6 6c72,62 142,109 223,139zm881 -431c-7,239 -14,454 -49,507 -29,43 -57,78 -86,107 -30,29 -60,52 -94,69l-37 20 1 -42c0,-5 0,-10 -1,-15 -22,38 -52,72 -88,102 -52,43 -114,77 -180,101l-30 11 -3 -32c0,-4 0,-8 -1,-12 -58,58 -129,103 -200,135 -109,50 -218,71 -278,71 -60,0 -169,-21 -277,-71 -72,-32 -143,-77 -200,-135 -1,4 -2,8 -2,12l-3 32 -30 -11c-66,-24 -128,-58 -179,-101 -36,-30 -67,-64 -89,-102 -1,5 -1,10 -1,15l1 42 -37 -20c-34,-17 -64,-40 -93,-69 -29,-29 -57,-64 -87,-107 -35,-53 -41,-267 -49,-506 -1,-46 -3,-93 -4,-141 -3,-63 -5,-127 -9,-191 -4,-63 -9,-126 -17,-189l0 -7 36 -84 13 83c9,58 21,117 38,174 16,57 36,113 62,166 17,36 36,69 56,98 64,92 142,154 228,179 87,26 183,17 284,-32 29,-14 58,-31 87,-51l14 -10 14 11c296,224 592,13 853,-172l8 -6 8 1c50,1 104,-1 152,-7 45,-5 85,-14 114,-25 25,-10 47,-23 68,-38 20,-15 38,-33 54,-53l47 -62 -4 78c-4,91 -7,186 -10,277z"/>
    <path class="fil7" d="M1017 946c-3,18 -5,35 -6,53l-1 18 -17 4c-85,24 -170,53 -256,89 -86,36 -172,79 -257,127l-13 7c-25,14 -52,29 -74,45l-28 21 -14 -12c-52,-43 -92,-88 -132,-132l-17 -19c-26,-29 -47,-58 -64,-88 -60,-103 -68,-210 -38,-311 30,-100 98,-195 190,-278 51,-46 110,-88 174,-125 497,-288 1201,-263 1715,-85 178,62 333,143 449,235 119,94 197,201 219,314 22,110 -11,225 -112,338 -22,24 -47,49 -74,74 -26,23 -53,45 -83,67l-14 10 -14 -10c-22,-15 -48,-30 -73,-44l-12 -7c-87,-49 -174,-92 -261,-128 -86,-36 -173,-66 -260,-90l-17 -4 -1 -18c-1,-17 -3,-34 -6,-52 -3,-17 -7,-34 -12,-51 -2,-9 -5,-13 -8,-14l-1 0c0,0 -1,1 -2,2 -3,3 -5,11 -2,22 10,36 15,72 15,108 0,94 -34,183 -91,256 -58,72 -138,128 -230,155 -38,11 -79,17 -120,17 -42,0 -82,-6 -120,-17 -92,-27 -172,-82 -230,-154 -57,-73 -92,-163 -92,-257 0,-35 5,-72 16,-108 3,-11 1,-19 -3,-23 0,0 -1,-1 -2,-1l-1 0c-2,1 -6,5 -8,14 -5,17 -9,35 -12,52zm216 286c61,60 144,97 236,97 92,0 175,-37 235,-97 60,-61 98,-144 98,-236 0,-92 -38,-175 -98,-235 -60,-60 -143,-98 -235,-98 -92,0 -175,38 -236,98 -60,60 -97,143 -97,235 0,92 37,175 97,236z"/>
    <path class="fil3" d="M2153 1275c-74,-32 -152,-57 -233,-73l-28 -6 9 -26c7,-18 12,-37 16,-56 4,-18 7,-37 8,-57l2 -29 29 8c99,28 196,63 289,105 94,43 185,93 270,148l32 21 -33 20c-19,12 -39,23 -60,34 -21,11 -41,21 -62,30l-12 6 -11 -8c-70,-45 -141,-85 -216,-117zm-1375 3c-77,34 -151,76 -222,123l-11 7c-12,-4 -24,-9 -36,-13 -18,-8 -35,-17 -52,-25 -15,-9 -31,-18 -45,-28l-29 -18c10,-8 21,-17 32,-25 86,-57 177,-108 272,-152 95,-44 194,-81 295,-109l28 -8 3 29c1,19 4,38 8,56 4,19 9,37 15,55l9 26 -27 6c-84,17 -164,43 -240,76z"/>
    <path class="fil8" d="M518 1372l24 9c146,-97 300,-169 471,-203 -13,-37 -21,-76 -25,-117 -200,57 -391,146 -560,259l-3 2c28,18 58,35 93,50zm818 -215c-57,0 -103,-45 -103,-102 0,-55 43,-100 97,-102 2,-63 54,-114 117,-114 64,0 115,50 117,113 2,0 5,0 7,0 28,0 51,23 51,51 0,1 0,1 0,2 4,-1 8,-1 13,-1 42,0 77,34 77,77 0,42 -35,76 -77,76l0 0 -299 0zm-142 840c-4,-23 -12,-46 -23,-67 27,8 50,18 67,28 83,54 69,161 50,249 -22,102 -41,160 -117,203 -126,71 -434,74 -555,-50l-2 -2 -1 -1 -3 -3 0 0 -2 -2 -1 -1 -1 -1 -1 -2 0 0 -2 -2 -1 -1 -1 -1 -1 -2 -1 0 -1 -2 -1 -1 -1 -1 -2 -2 0 0 -1 -2 -1 -1 -1 -1 -1 -2 -1 -1 -1 -2 -1 -1 -1 -1 -1 -2 0 0 -2 -3 -1 0 -1 -2 -1 -2 0 0 -2 -2 0 -1 -1 -2 -1 -2 -1 0 -1 -3 -1 0 -1 -2 -1 -2 -2 -3 0 0 -2 -4 0 0 0 -1 -2 -2 0 -1 -1 -2 -1 -1 -1 -1 -1 -3 0 0 -1 -2 -1 -2 -1 -1 -1 -2 0 -1 -1 -2 -1 -2 0 0 -2 -3 0 0 -1 -2 -1 -2 0 -1 -1 -3 -1 0 -1 -2 0 -2 -1 -1 -1 -3 0 0 -1 -2 -1 -2 -2 -4 0 0 -1 -2 0 -2 -1 -1 -1 -3 0 0 -1 -3 -1 -1 0 -1 -1 -3 0 0 -1 -3 -1 -2 0 -1 -1 -2 0 -1 -1 -2 -1 -2 0 -1 -1 -3 0 0 -1 -3 -1 -1 0 -2 -1 -2c-9,-29 -17,-59 -22,-89l0 0 -1 -4c-23,-125 -21,-192 106,-213 82,-14 242,-15 384,0 49,35 95,78 124,127 10,17 31,25 50,18 18,-7 30,-26 26,-46zm-166 -214c-18,-12 -37,-23 -54,-32 -93,-46 -231,-82 -329,-33 -18,9 -27,30 -21,49 3,9 8,17 15,22 -35,5 -67,11 -96,16l161 -204c435,260 1111,258 1542,-7l143 180c-21,-2 -44,-5 -67,-7 6,-20 -3,-40 -21,-49 -98,-49 -236,-13 -329,33 -8,5 -16,9 -25,14 -9,1 -17,2 -26,3 -193,25 -287,68 -388,82 -21,3 -41,5 -60,6 -20,0 -40,-2 -61,-4 -100,-11 -199,-49 -384,-69zm-111 244c24,9 35,39 25,67 -9,28 -37,43 -61,35 -24,-9 -36,-38 -26,-66 10,-28 38,-44 62,-36zm16 -40c81,0 146,92 146,205 0,16 -3,31 -8,44 11,12 20,25 27,39 6,12 2,26 -9,34 -10,7 -25,6 -34,-3 -40,-38 -99,-62 -152,-72 -53,-11 -118,-12 -169,7 -12,5 -26,0 -33,-11 -6,-11 -4,-25 5,-34 22,-20 51,-32 82,-38 12,-97 72,-171 145,-171zm954 304c-13,-70 36,-150 82,-198 46,-49 123,-101 194,-92 13,2 22,13 23,26 1,13 -8,24 -20,27 -53,13 -105,51 -143,91 -12,12 -24,27 -35,42 27,-13 56,-22 82,-27 65,-13 158,-12 211,36 10,9 12,23 5,34 -7,11 -21,16 -33,11 -51,-19 -115,-18 -168,-7 -53,10 -113,34 -153,72 -9,9 -23,10 -34,3 -6,-5 -10,-11 -11,-18l0 0zm-135 -294c4,-25 13,-48 25,-71 -20,8 -36,16 -48,25 -72,56 -36,162 2,250 43,101 74,158 158,199 52,25 127,40 205,42l0 0 2 0 5 0 2 1 2 0 0 0 5 0 2 0 2 0 2 0 3 0 2 0 2 0 2 0 7 0 3 0 2 0 4 -1 0 0 3 0 2 0 4 0 3 0 2 0 5 0 2 0 2 -1 2 0 5 0 0 0 2 0 2 0 3 -1 2 0 2 0 2 0 3 0 2 -1 2 0 2 0 3 0 0 0 4 -1 2 0 3 0 2 -1 4 0 3 0 2 -1 4 0 2 -1 3 0 2 0 2 -1 2 0 2 -1 3 0 2 0 0 0c83,-15 157,-47 195,-98 33,-44 51,-104 57,-170l0 -1 0 -1 0 -2 1 -1 0 -2 0 -2 0 -1 0 0 0 -1 0 -1 0 -2 0 -1 0 0 0 -1 0 -1 1 -3 0 -1 0 -1 0 -2 0 0 0 -1 0 -1 0 -1 0 -1 0 -1 0 -1 0 -1 0 -1 0 -1 0 -1 0 -1 0 -1 0 -1 1 -1 0 -1 0 -1 0 -1 0 0 0 -2 0 -1 0 -1 0 -1 0 -1 0 -1 0 -1 0 -1 0 0 0 -2 0 -1 0 -1 0 0 0 -2 0 -1 0 -1 0 -1 0 -2 0 -1 0 -1 0 0 0 -1 0 -2 0 -1 0 -1 0 0 0 -2 0 -1 0 -1 0 0 0 -1 0 -2 0 -1 0 -1 0 0 0 -2 0 -1 0 -1 0 -1 0 -1 -1 -1 0 -1 0 -1 0 -1 0 0 0 -1 0 -1 0 -1 0 -2 0 -1 0 0 0 -1 0 -1 0 -1 0 -1 0 -1 0 0 0 -1 0 -1 0 -1 0 -1 0 -1 0 -1 0 0 0 0 0 -1 0 -1 0 -1 -1 -1 0 -1 0 -1 0 0 0 -1 0 -1 0 -1 0 -1 0 -1 0 0 0 -1 0 -1 0 -1 0 -1 0 -1 0 0 0 -1 0 -1 0 -1 0 -1 -1 -1 0 0 0 -1 0 0 0 -1 0 -1 0 -1 0 -1 0 -1 0 0 0 -1 0 -1 0 -1 0 -1 0 0 0 -1 -1 0 0 -1 0 -1 0 -1 0 -1 0 -1 0 0 0 -1 0 -1c-9,-86 -39,-134 -147,-149 -81,-11 -232,-8 -366,10 -58,36 -114,85 -148,142 -10,17 -31,25 -50,18 -19,-7 -30,-26 -26,-46zm302 822c32,133 64,363 -130,363 -241,-1 -380,-64 -529,-193l0 0c-30,-2 -251,-36 -249,-66 3,-30 29,-52 59,-50 68,5 137,8 205,6 2,0 3,0 5,0 53,-2 107,-6 160,-15 116,-19 235,-57 358,-124 -14,-14 -21,-34 -16,-54 8,-29 38,-47 67,-39 36,9 58,17 83,35 24,18 44,38 62,59 19,23 17,57 -6,77 -21,17 -50,17 -69,1zm-81 195c-27,5 -53,5 -77,-3 -28,-9 -23,-51 7,-53 21,-1 42,-6 63,-13 -5,-41 -13,-76 -16,-90 -60,32 -125,63 -197,87 -50,16 -163,35 -236,45 -12,3 -19,5 -27,6 96,59 256,140 442,131 35,-2 43,-53 41,-110zm-204 -493c-34,63 -122,116 -188,125 -67,8 -159,-22 -208,-73 -9,-10 -10,-24 -3,-35 8,-10 22,-14 34,-8 49,23 114,26 167,19 54,-7 115,-26 157,-61 10,-9 25,-9 35,0 10,8 12,22 6,33zm714 -736c14,1 28,3 41,3l0 -387c-33,18 -68,35 -105,51 -3,1 -5,2 -7,3 -31,37 -68,71 -110,101l181 229zm18 615c-34,44 -78,78 -132,99 -64,26 -175,37 -276,34 -267,190 -572,408 -882,172 -284,195 -544,100 -691,-204 -53,-108 -83,-227 -102,-346l0 1c15,126 20,255 25,382 10,286 12,578 50,634 57,85 107,135 171,169 -1,-34 12,-56 27,-66 43,103 152,186 275,230 1,-22 10,-47 26,-45 137,155 378,217 477,217 99,0 340,-62 477,-217 16,-2 25,23 27,45 122,-44 232,-127 274,-230 15,10 29,32 28,66 63,-34 114,-84 171,-169 43,-65 39,-449 55,-772zm-519 121c-11,-2 -21,-4 -31,-7 -147,-39 -191,-103 -262,-223 -31,-54 -113,-221 -194,-224 -81,5 -127,174 -147,228 -45,122 -75,187 -214,231 -105,33 -314,33 -420,-4 -43,-14 -83,-36 -118,-64 97,236 279,390 553,201 41,-28 95,-25 131,6 229,170 478,14 702,-144zm-1568 -702c11,0 22,0 33,-1l200 -254c-46,-32 -86,-68 -120,-108 -3,-2 -7,-3 -8,-4 -37,-16 -72,-33 -105,-51l0 418zm2178 -458l4 652c83,-43 212,-48 233,107 9,58 -2,122 -33,188 -36,80 -130,170 -215,199 -1,59 -1,118 -3,175 -8,252 7,479 -42,551 -52,78 -177,229 -275,216 -61,65 -231,185 -317,161 -134,105 -340,235 -475,235 -134,0 -340,-130 -475,-234 -26,7 -50,4 -75,-7 -97,-40 -170,-79 -242,-155l-64 -12 0 0c-89,-46 -152,-117 -211,-204 -49,-72 -27,-299 -34,-551 -2,-56 -4,-115 -6,-174 -87,-27 -184,-119 -221,-200 -30,-66 -41,-130 -33,-188 22,-152 145,-150 227,-110l10 -649c-80,-50 -147,-105 -199,-164 -288,-320 -99,-752 280,-972 920,-533 2505,4 2505,644 0,116 -49,227 -139,328 -53,59 -120,114 -200,164zm-2235 1042c-4,-88 -10,-171 -19,-241 -44,-8 -75,30 -54,74l0 0c21,45 -21,76 -42,32l0 0c-37,-78 -22,-174 92,-175l1 -25c-58,-54 -230,-10 -127,209 26,54 90,106 149,126zm2240 -328l0 18c120,-3 136,96 98,175l0 0c-20,44 -63,13 -42,-32l0 0c22,-47 -13,-85 -60,-72 -7,69 -10,152 -11,239 58,-21 122,-72 147,-126 107,-227 -82,-266 -132,-202zm-1128 -1436c197,0 357,160 357,357 0,198 -160,358 -357,358 -198,0 -358,-160 -358,-358 0,-197 160,-357 358,-357zm455 539c167,33 317,102 458,194 43,-19 82,-40 119,-62 -167,-110 -355,-196 -552,-251 -3,41 -11,81 -25,119zm26 -182c176,47 351,120 527,220 28,16 60,33 87,52 61,-44 112,-91 153,-137 583,-650 -1250,-1340 -2241,-765 -318,185 -500,493 -256,765 45,49 89,101 146,148 4,-3 9,-6 13,-10 27,-19 60,-37 89,-53 173,-98 346,-171 519,-218 2,-37 8,-74 18,-111 16,-55 77,-31 61,24 -72,252 140,504 403,504 264,0 474,-254 403,-504 -16,-55 44,-79 60,-24 10,36 16,73 18,109z"/>
   </g>
  </g>
 </g>
</svg>
