<?xml version="1.0" encoding="UTF-8" standalone="no"?>
<svg
   xml:space="preserve"
   width="100%"
   height="100%"
   version="1.1"
   style="shape-rendering:geometricPrecision; text-rendering:geometricPrecision; image-rendering:optimizeQuality; fill-rule:evenodd; clip-rule:evenodd"
   viewBox="-140 -140 39450 10280"
   id="svg2730"
   sodipodi:docname="sprinters-text.svg"
   inkscape:version="1.2.2 (732a01da63, 2022-12-09)"
   xmlns:inkscape="http://www.inkscape.org/namespaces/inkscape"
   xmlns:sodipodi="http://sodipodi.sourceforge.net/DTD/sodipodi-0.dtd"
   xmlns="http://www.w3.org/2000/svg"
   xmlns:svg="http://www.w3.org/2000/svg"><defs
   id="defs2734" /><sodipodi:namedview
   id="namedview2732"
   pagecolor="#ffffff"
   bordercolor="#000000"
   borderopacity="0.25"
   inkscape:showpageshadow="2"
   inkscape:pageopacity="0.0"
   inkscape:pagecheckerboard="0"
   inkscape:deskcolor="#d1d1d1"
   showgrid="false"
   inkscape:zoom="0.030671736"
   inkscape:cx="16578.781"
   inkscape:cy="5151.3223"
   inkscape:window-width="3840"
   inkscape:window-height="2137"
   inkscape:window-x="1432"
   inkscape:window-y="808"
   inkscape:window-maximized="1"
   inkscape:current-layer="svg2730" />
    <style
   type="text/css"
   id="style2692">
		polygon{stroke-width:275;stroke-linejoin:round;stroke:hsl(247, 15%, 23%)}
	</style>
    <!-- left -->
    <polygon
   fill="hsl(197, 100%, 38%)"
   points="5000,5000 5000,10000 670,7500 670,2500"
   id="polygon2694" />
    <!-- top -->
    <polygon
   fill="hsl(197, 92%, 28%)"
   points="5000,0 9330,2500 5000,5000 670,2500"
   id="polygon2696" />
    <!-- right -->
    <polygon
   fill="hsl(197, 84%, 23%)"
   points="5000,5000 9330,2500 9330,7500 5000,10000"
   id="polygon2698" />
    <!-- triangle -->
    <polygon
   fill="hsl(45, 92%, 52%)"
   points="3500,2500 3500,7500 7830,5000"
   id="polygon2700" />
    <!-- sprinters -->
    <g
   fill="hsl(247, 15%, 23%)"
   id="g2720">
        <path
   d="m 13333.223,4009.7656 q -127.442,-82.1289 -286.035,-133.1054 -158.594,-50.9766 -317.188,-50.9766 -266.211,0 -413.477,121.7773 -144.433,121.7774 -144.433,322.8516 0,82.1289 25.488,150.0977 28.32,67.9687 79.297,130.2734 53.809,59.4726 133.105,116.1133 82.129,56.6406 186.915,121.7773 317.187,184.082 455.957,379.4922 141.601,192.5781 141.601,436.1328 0,164.2578 -62.305,322.8516 -59.472,155.7617 -192.578,277.539 -133.105,118.9454 -345.507,192.5782 -209.571,73.6328 -512.598,73.6328 -84.961,0 -186.914,-11.3281 -101.953,-11.3282 -206.738,-33.9844 -101.954,-22.6563 -198.243,-53.8086 -93.457,-33.9844 -164.257,-76.4649 l 93.457,-441.7968 q 56.64,39.6484 138.769,79.2968 84.961,39.6485 181.25,70.8008 99.121,31.1524 203.906,50.9766 107.618,19.8242 212.403,19.8242 283.203,0 421.972,-113.2812 141.602,-113.2813 141.602,-314.3555 0,-73.6328 -22.656,-135.9375 -19.825,-62.3047 -73.633,-124.6094 -53.809,-62.3047 -141.602,-124.6094 -87.793,-65.1367 -220.898,-144.4336 -288.867,-175.5859 -427.637,-365.332 -135.937,-192.5781 -135.937,-433.3008 0,-175.5859 65.136,-334.1797 65.137,-161.4257 192.578,-283.2031 130.274,-124.6094 325.684,-198.2422 195.41,-73.6328 455.957,-73.6328 203.906,0 385.156,39.6485 184.082,39.6484 311.524,101.9531 z"
   id="path2702" />
        <path
   d="m 16493.77,4513.8672 q 0,209.5703 -45.313,436.1328 -45.312,223.7305 -138.769,441.7969 -93.458,218.0664 -235.059,413.4765 -138.77,195.4102 -328.516,345.5078 -189.746,147.2657 -430.468,235.0586 -240.723,84.961 -532.422,84.961 -167.09,0 -331.348,-31.1524 -161.426,-31.1523 -283.203,-73.6328 l -288.867,1379.1992 h -470.117 l 708.007,-3353.125 q 19.825,-90.625 36.817,-218.0664 16.992,-127.4414 28.32,-254.8828 14.16,-130.2734 22.656,-243.5547 8.496,-113.2812 8.496,-175.5859 h 475.782 q 0,48.1445 -8.496,130.2734 -5.665,82.1289 -16.993,172.7539 -11.328,87.793 -22.656,172.754 -11.328,82.1289 -19.824,133.1054 h 11.328 q 201.074,-342.6758 453.125,-509.7656 252.051,-169.9219 549.414,-169.9219 198.242,0 356.836,67.9688 158.594,67.9687 269.043,203.9062 113.281,135.9375 172.754,339.8438 59.473,203.9062 59.473,472.9492 z m -475.782,19.8242 q 0,-152.9297 -28.32,-283.2031 -25.488,-130.2735 -87.793,-223.7305 -62.305,-93.457 -161.426,-147.2656 -96.289,-53.8086 -237.89,-53.8086 -147.266,0 -277.539,62.3047 -127.442,59.4726 -237.891,161.4258 -110.449,101.9531 -201.074,237.8906 -90.625,133.1055 -161.426,277.539 -70.801,144.4336 -121.777,291.6993 -48.145,144.4336 -73.633,271.875 l -178.418,841.1132 q 50.976,22.6563 121.777,42.4805 70.801,16.9922 147.266,31.1524 76.465,14.1601 155.761,22.6562 79.297,8.4961 147.266,8.4961 195.41,0 359.668,-65.1367 167.09,-65.1367 297.363,-175.586 133.106,-113.2812 232.227,-263.3789 101.953,-152.9296 169.922,-322.8515 67.969,-172.7539 101.953,-354.0039 33.984,-184.0821 33.984,-359.668 z"
   id="path2704" />
        <path
   d="m 18884.004,3992.7734 h -11.328 q -56.641,-33.9843 -150.098,-65.1367 -90.625,-33.9844 -181.25,-33.9844 -164.258,0 -314.355,107.6172 -150.098,104.7852 -274.707,280.3711 -121.778,172.7539 -215.235,396.4844 -90.625,223.7305 -141.601,458.7891 L 17323.555,6400 h -464.453 l 407.812,-1925.7813 q 25.488,-118.9453 50.977,-249.2187 25.488,-130.2734 45.312,-260.5469 22.656,-130.2734 39.649,-249.2187 16.992,-118.9453 25.488,-215.2344 h 458.789 q -8.496,84.9609 -19.824,181.25 -11.328,93.457 -22.657,184.082 -11.328,87.793 -22.656,161.4258 -11.328,70.8008 -16.992,110.4492 h 11.328 q 90.625,-161.4257 184.082,-291.6992 93.457,-130.2734 195.41,-220.8984 104.785,-93.4571 220.899,-144.4336 116.113,-50.9766 252.051,-50.9766 79.296,0 155.761,16.9922 79.297,14.1602 141.602,31.1524 z"
   id="path2706" />
        <path
   d="m 19957.344,6388.6719 q -70.801,22.6562 -161.426,36.8164 -87.793,14.1601 -175.586,14.1601 -286.035,0 -427.637,-141.6015 -141.601,-144.4336 -141.601,-385.1563 0,-70.8008 14.16,-167.0898 14.16,-96.2891 45.312,-237.8906 L 19532.539,3500 h 470.117 l -424.804,2019.2383 q -25.489,118.9453 -36.817,184.082 -8.496,65.1367 -8.496,110.4492 0,116.1133 62.305,178.418 65.136,59.4727 203.906,59.4727 73.633,0 127.441,-8.4961 56.641,-8.4961 104.786,-25.4883 z m 331.347,-3922.3633 q 0,127.4414 -87.793,218.0664 -84.961,90.625 -212.402,90.625 -124.609,0 -218.066,-87.793 -90.625,-90.625 -90.625,-220.8984 0,-130.2734 90.625,-212.4023 93.457,-82.129 218.066,-82.129 124.609,0 212.402,84.961 87.793,82.1289 87.793,209.5703 z"
   id="path2708" />
        <path
   d="m 23242.5,4225 q 0,42.4805 -11.328,116.1133 -8.496,73.6328 -25.488,158.5937 -14.161,84.961 -31.153,169.9219 -14.16,82.1289 -28.32,141.6016 L 22809.199,6400 h -470.117 l 354.004,-1699.2188 q 11.328,-45.3125 22.656,-104.7851 11.328,-59.4727 19.824,-118.9453 8.496,-59.4727 14.161,-107.6172 5.664,-50.9766 5.664,-79.2969 0,-215.2344 -104.786,-339.8437 -101.953,-124.6094 -305.859,-124.6094 -186.914,0 -370.996,110.4492 -184.082,110.4492 -339.844,280.3711 -155.761,169.9219 -269.043,373.8281 -110.449,203.9063 -150.097,393.6524 L 20911.738,6400 h -470.117 l 447.461,-2070.2148 q 22.656,-110.4493 45.313,-229.3946 22.656,-121.7773 42.48,-232.2265 19.824,-113.2813 33.984,-209.5703 14.161,-96.2891 22.657,-158.5938 h 453.125 q -14.161,110.4492 -33.985,232.2266 -19.824,118.9453 -33.984,220.8984 -16.992,118.9453 -36.817,232.2266 h 11.329 q 99.121,-155.7618 218.066,-291.6993 121.777,-138.7695 260.547,-240.7226 141.601,-104.7852 297.363,-164.2578 158.594,-59.4727 331.348,-59.4727 192.578,0 331.347,59.4727 138.77,56.6406 229.395,161.4258 93.457,104.7851 135.937,252.0507 45.313,147.2657 45.313,322.8516 z"
   id="path2710" />
        <path
   d="m 25493.965,3893.6523 h -730.664 l -325.684,1537.793 q -16.992,87.793 -33.984,189.7461 -16.992,101.9531 -16.992,164.2578 0,144.4336 62.304,209.5703 65.137,62.3047 203.907,62.3047 33.984,0 87.793,-11.3281 53.808,-11.3281 110.449,-28.3203 56.64,-16.9922 110.449,-36.8164 56.641,-22.6563 99.121,-39.6485 l -87.793,407.8125 q -99.121,42.4805 -226.562,70.8008 -124.61,31.1524 -237.891,31.1524 -161.426,0 -274.707,-42.4805 -113.281,-39.6484 -186.914,-116.1133 -70.801,-76.4648 -104.785,-184.082 -31.153,-110.4492 -31.153,-246.3867 0,-82.1289 14.161,-189.7461 16.992,-110.4493 39.648,-201.0743 l 334.18,-1577.4414 h -481.446 L 23905.195,3500 h 475.782 l 150.097,-708.0078 q 11.328,-5.6641 84.961,-25.4883 76.465,-22.6562 164.258,-48.1445 90.625,-28.3203 164.258,-50.9766 76.465,-22.6562 84.961,-25.4883 L 24851.094,3500 h 730.664 z"
   id="path2712" />
        <path
   d="m 28133.418,4179.6875 q 0,229.3945 -101.953,419.1406 -101.953,186.9141 -337.012,322.8516 -235.058,133.1055 -620.215,206.7383 -385.156,73.6328 -951.562,76.4648 -5.664,31.1524 -5.664,65.1367 0,31.1524 0,56.6407 0,152.9296 42.48,288.8671 42.481,135.9375 130.274,237.8907 90.625,101.9531 229.394,161.4257 141.602,59.4727 334.18,59.4727 195.41,0 427.637,-73.6328 235.058,-76.4649 447.46,-215.2344 l -87.792,458.7891 q -155.762,90.625 -370.997,158.5937 -215.234,67.9688 -481.445,67.9688 -320.019,0 -540.918,-99.1211 -218.066,-99.1211 -354.004,-263.3789 -133.105,-167.0899 -192.578,-382.3242 -59.473,-218.0664 -59.473,-455.9571 0,-254.8828 56.641,-489.9414 56.641,-237.8906 158.594,-441.7969 104.785,-203.9062 249.219,-370.996 144.433,-169.9219 320.019,-288.8672 175.586,-118.9453 376.66,-184.0821 201.074,-65.1367 416.309,-65.1367 223.73,0 393.652,59.4727 172.754,59.4726 286.035,164.2578 116.114,101.9531 175.586,237.8906 59.473,135.9375 59.473,288.8672 z m -472.949,22.6562 q 0,-178.4179 -133.106,-277.539 -130.273,-99.1211 -348.34,-99.1211 -172.753,0 -334.179,76.4648 -161.426,73.6329 -297.364,206.7383 -135.937,130.2735 -235.058,314.3555 -99.121,181.25 -144.434,393.6523 404.981,0 688.184,-39.6484 283.203,-42.4805 461.621,-121.7774 178.418,-79.2968 260.547,-192.5781 82.129,-116.1133 82.129,-260.5469 z"
   id="path2714" />
        <path
   d="m 30413.203,3992.7734 h -11.328 q -56.641,-33.9843 -150.098,-65.1367 -90.625,-33.9844 -181.25,-33.9844 -164.257,0 -314.355,107.6172 -150.098,104.7852 -274.707,280.3711 -121.778,172.7539 -215.235,396.4844 -90.625,223.7305 -141.601,458.7891 L 28852.754,6400 h -464.453 l 407.812,-1925.7813 q 25.489,-118.9453 50.977,-249.2187 25.488,-130.2734 45.312,-260.5469 22.657,-130.2734 39.649,-249.2187 16.992,-118.9453 25.488,-215.2344 h 458.789 q -8.496,84.9609 -19.824,181.25 -11.328,93.457 -22.656,184.082 -11.328,87.793 -22.657,161.4258 -11.328,70.8008 -16.992,110.4492 h 11.328 q 90.625,-161.4257 184.082,-291.6992 93.457,-130.2734 195.411,-220.8984 104.785,-93.4571 220.898,-144.4336 116.113,-50.9766 252.051,-50.9766 79.297,0 155.761,16.9922 79.297,14.1602 141.602,31.1524 z"
   id="path2716" />
        <path
   d="m 32412.617,4009.7656 q -127.441,-82.1289 -286.035,-133.1054 -158.594,-50.9766 -317.187,-50.9766 -266.211,0 -413.477,121.7773 -144.434,121.7774 -144.434,322.8516 0,82.1289 25.489,150.0977 28.32,67.9687 79.297,130.2734 53.808,59.4726 133.105,116.1133 82.129,56.6406 186.914,121.7773 317.188,184.082 455.957,379.4922 141.602,192.5781 141.602,436.1328 0,164.2578 -62.305,322.8516 -59.473,155.7617 -192.578,277.539 -133.106,118.9454 -345.508,192.5782 -209.57,73.6328 -512.598,73.6328 -84.961,0 -186.914,-11.3281 -101.953,-11.3282 -206.738,-33.9844 -101.953,-22.6563 -198.242,-53.8086 -93.457,-33.9844 -164.258,-76.4649 l 93.457,-441.7968 q 56.641,39.6484 138.77,79.2968 84.961,39.6485 181.25,70.8008 99.121,31.1524 203.906,50.9766 107.617,19.8242 212.402,19.8242 283.203,0 421.973,-113.2812 141.601,-113.2813 141.601,-314.3555 0,-73.6328 -22.656,-135.9375 -19.824,-62.3047 -73.633,-124.6094 -53.808,-62.3047 -141.601,-124.6094 -87.793,-65.1367 -220.899,-144.4336 -288.867,-175.5859 -427.636,-365.332 -135.938,-192.5781 -135.938,-433.3008 0,-175.5859 65.137,-334.1797 65.137,-161.4257 192.578,-283.2031 130.273,-124.6094 325.684,-198.2422 195.41,-73.6328 455.957,-73.6328 203.906,0 385.156,39.6485 184.082,39.6484 311.523,101.9531 z"
   id="path2718" />
    </g>
    <!-- .sh -->
    <g
   fill="hsl(197, 100%, 38%)"
   id="g2728"
   style="fill:#f6bd14;fill-opacity:1">
        <path
   d="m 33341.523,6150.7812 q 0,65.1368 -25.488,121.7774 -22.656,56.6406 -65.137,99.1211 -42.48,42.4805 -101.953,67.9687 -56.64,25.4883 -121.777,25.4883 -65.137,0 -121.777,-25.4883 -56.641,-25.4882 -99.121,-67.9687 -42.481,-42.4805 -67.969,-99.1211 -22.656,-56.6406 -22.656,-121.7774 0,-65.1367 22.656,-121.7773 25.488,-59.4727 67.969,-101.9531 42.48,-42.4805 99.121,-65.1367 56.64,-25.4883 121.777,-25.4883 65.137,0 121.777,25.4883 59.473,22.6562 101.953,65.1367 42.481,42.4804 65.137,101.9531 25.488,56.6406 25.488,121.7773 z"
   id="path2722"
   style="fill:#f6bd14;fill-opacity:1" />
        <path
   d="m 35966.816,4009.7656 q -127.441,-82.1289 -286.035,-133.1054 -158.593,-50.9766 -317.187,-50.9766 -266.211,0 -413.477,121.7773 -144.433,121.7774 -144.433,322.8516 0,82.1289 25.488,150.0977 28.32,67.9687 79.297,130.2734 53.808,59.4726 133.105,116.1133 82.129,56.6406 186.914,121.7773 317.188,184.082 455.957,379.4922 141.602,192.5781 141.602,436.1328 0,164.2578 -62.305,322.8516 -59.472,155.7617 -192.578,277.539 -133.105,118.9454 -345.508,192.5782 -209.57,73.6328 -512.597,73.6328 -84.961,0 -186.914,-11.3281 -101.954,-11.3282 -206.739,-33.9844 -101.953,-22.6563 -198.242,-53.8086 -93.457,-33.9844 -164.258,-76.4649 l 93.457,-441.7968 q 56.641,39.6484 138.77,79.2968 84.961,39.6485 181.25,70.8008 99.121,31.1524 203.906,50.9766 107.617,19.8242 212.402,19.8242 283.204,0 421.973,-113.2812 141.602,-113.2813 141.602,-314.3555 0,-73.6328 -22.657,-135.9375 -19.824,-62.3047 -73.632,-124.6094 -53.809,-62.3047 -141.602,-124.6094 -87.793,-65.1367 -220.898,-144.4336 -288.868,-175.5859 -427.637,-365.332 -135.938,-192.5781 -135.938,-433.3008 0,-175.5859 65.137,-334.1797 65.137,-161.4257 192.578,-283.2031 130.274,-124.6094 325.684,-198.2422 195.41,-73.6328 455.957,-73.6328 203.906,0 385.156,39.6485 184.082,39.6484 311.524,101.9531 z"
   id="path2724"
   style="fill:#f6bd14;fill-opacity:1" />
        <path
   d="m 39138.691,4230.6641 q 0,36.8164 -11.328,113.2812 -8.496,73.6328 -22.656,158.5938 -11.328,84.9609 -28.32,169.9218 -14.16,82.1289 -28.321,138.7696 L 38711.055,6400 h -470.117 l 354.003,-1699.2188 q 11.329,-45.3125 22.657,-104.7851 11.328,-59.4727 19.824,-118.9453 8.496,-59.4727 14.16,-107.6172 5.664,-50.9766 5.664,-79.2969 0,-220.8984 -101.953,-342.6758 -99.121,-121.7773 -308.691,-121.7773 -181.25,0 -362.5,107.6172 -181.25,104.7851 -337.012,274.707 -155.762,167.0899 -271.875,376.6602 -113.281,206.7382 -158.594,410.6445 L 36813.594,6400 h -470.117 l 917.578,-4293.3594 h 464.453 l -441.797,2073.0469 h 11.328 q 104.785,-161.4258 229.395,-297.3633 124.609,-138.7695 263.379,-237.8906 141.601,-101.9531 294.531,-158.5938 155.761,-56.6406 320.019,-56.6406 362.5,0 549.414,215.2344 186.914,212.4023 186.914,586.2305 z"
   id="path2726"
   style="fill:#f6bd14;fill-opacity:1" />
    </g>
</svg>
